<?xml version="1.0" standalone="no"?><svg xmlns="http://www.w3.org/2000/svg" viewBox="0 0 1440 320"><path fill="#ff5500" fill-opacity="1" d="M0,64L20,101.3C40,139,80,213,120,256C160,299,200,309,240,277.3C280,245,320,171,360,138.7C400,107,440,117,480,106.7C520,96,560,64,600,69.3C640,75,680,117,720,154.7C760,192,800,224,840,202.7C880,181,920,107,960,69.3C1000,32,1040,32,1080,58.7C1120,85,1160,139,1200,176C1240,213,1280,235,1320,229.3C1360,224,1400,192,1420,176L1440,160L1440,320L1420,320C1400,320,1360,320,1320,320C1280,320,1240,320,1200,320C1160,320,1120,320,1080,320C1040,320,1000,320,960,320C920,320,880,320,840,320C800,320,760,320,720,320C680,320,640,320,600,320C560,320,520,320,480,320C440,320,400,320,360,320C320,320,280,320,240,320C200,320,160,320,120,320C80,320,40,320,20,320L0,320Z"></path></svg>